<svg t="1716193337253" class="icon" viewBox="0 0 1024 1024" version="1.1" xmlns="http://www.w3.org/2000/svg" p-id="2692" width="150" height="150"><path d="M208.979592 1024h606.040816c115.461224 0 208.979592-93.518367 208.979592-208.979592V208.979592C1024 93.518367 930.481633 0 815.020408 0H208.979592C93.518367 0 0 93.518367 0 208.979592v606.040816c0 115.461224 93.518367 208.979592 208.979592 208.979592z" fill="#FC8411" p-id="2693"></path><path d="M204.277551 751.386122c-17.449796 5.955918-36.675918-6.687347-37.093878-26.122449V328.097959c-0.10449-9.090612 4.597551-17.554286 12.434286-22.256326C207.830204 289.123265 278.569796 250.77551 334.367347 250.77551c59.663673 0 136.359184 43.781224 159.973877 58.200817 4.493061 2.716735 7.209796 7.732245 7.209796 13.061224v403.226122c-0.417959 21.106939-23.092245 34.272653-41.586938 24.137143C425.586939 731.637551 375.849796 710.530612 334.367347 710.530612c-49.841633 0-111.490612 30.51102-130.089796 40.85551z m0 0c1.462857-0.522449 3.030204-1.149388 4.493061-1.985306-12.538776 7.209796-12.643265 6.478367-4.493061 1.985306z m355.265306 0c-17.449796 5.955918-36.675918-6.687347-37.093877-26.122449V328.097959c-0.10449-9.090612 4.597551-17.554286 12.434285-22.256326C563.09551 289.123265 633.835102 250.77551 689.632653 250.77551c59.663673 0 136.359184 43.781224 159.973878 58.200817 4.493061 2.716735 7.209796 7.732245 7.209796 13.061224v403.226122c-0.417959 21.106939-23.092245 34.272653-41.586939 24.137143C780.852245 731.637551 731.115102 710.530612 689.632653 710.530612c-49.841633 0-111.490612 30.51102-130.089796 40.85551z m0 0c1.462857-0.522449 3.030204-1.149388 4.493061-1.985306-12.538776 7.209796-12.643265 6.478367-4.493061 1.985306z" fill="#F8F5F3" p-id="2694"></path></svg>